<svg width="44" height="44" viewBox="0 0 44 44" fill="none" xmlns="http://www.w3.org/2000/svg">
<path d="M44 22C44 28.0751 41.5376 33.5751 37.5564 37.5563C33.5751 41.5375 28.0751 44 22 44C15.9249 44 10.4249 41.5375 6.44365 37.5563C2.46243 33.5751 0 28.0751 0 22C0 15.9248 2.46243 10.4248 6.44365 6.44362C10.4249 2.4624 15.9249 -3.05176e-05 22 -3.05176e-05C28.0751 -3.05176e-05 33.5751 2.4624 37.5564 6.44362C41.5376 10.4248 44 15.9248 44 22Z" fill="black"/>
<path d="M43.5 22C43.5 27.9372 41.0941 33.3115 37.2028 37.2028C33.3115 41.094 27.9372 43.5 22 43.5C16.0628 43.5 10.6885 41.094 6.7972 37.2028C2.90592 33.3115 0.5 27.9372 0.5 22C0.5 16.0628 2.90592 10.6885 6.7972 6.79717C10.6885 2.90589 16.0628 0.499969 22 0.499969C27.9372 0.499969 33.3115 2.90589 37.2028 6.79717C41.0941 10.6885 43.5 16.0628 43.5 22Z" stroke="white" stroke-opacity="0.3"/>
</svg>
