<svg width="97" height="52" viewBox="0 0 97 52" fill="none" xmlns="http://www.w3.org/2000/svg">
<path d="M5.28051 45.4078C4.53617 45.4078 3.86734 45.2784 3.27403 45.0195C2.6915 44.7498 2.23303 44.383 1.89861 43.9191C1.5642 43.4445 1.3916 42.8997 1.38081 42.2848H2.9504C3.00434 42.8134 3.22009 43.2611 3.59765 43.6279C3.986 43.9839 4.54696 44.1619 5.28051 44.1619C5.9817 44.1619 6.53187 43.9893 6.93101 43.6441C7.34094 43.2881 7.5459 42.835 7.5459 42.2848C7.5459 41.8533 7.42724 41.5027 7.18991 41.233C6.95258 40.9634 6.65593 40.7584 6.29994 40.6181C5.94395 40.4779 5.4639 40.3269 4.8598 40.1651C4.11546 39.9709 3.51675 39.7767 3.06367 39.5825C2.62138 39.3884 2.23842 39.0863 1.91479 38.6764C1.60195 38.2557 1.44553 37.6947 1.44553 36.9935C1.44553 36.3786 1.60195 35.8339 1.91479 35.3592C2.22763 34.8846 2.66453 34.5178 3.22548 34.2589C3.79722 34 4.44987 33.8705 5.18342 33.8705C6.2406 33.8705 7.10361 34.1348 7.77244 34.6634C8.45205 35.192 8.83501 35.8932 8.92131 36.767H7.30318C7.24924 36.3355 7.0227 35.9579 6.62356 35.6343C6.22442 35.2999 5.69583 35.1327 5.03779 35.1327C4.4229 35.1327 3.92128 35.2945 3.53293 35.6181C3.14458 35.931 2.9504 36.3732 2.9504 36.945C2.9504 37.3549 3.06367 37.6893 3.29021 37.9482C3.52753 38.2071 3.8134 38.4067 4.14782 38.5469C4.49302 38.6764 4.97307 38.8274 5.58796 39C6.3323 39.205 6.93101 39.4099 7.38409 39.6149C7.83716 39.8091 8.22552 40.1165 8.54914 40.5372C8.87277 40.9472 9.03458 41.5081 9.03458 42.2201C9.03458 42.7703 8.88895 43.2881 8.59769 43.7735C8.30642 44.259 7.87492 44.6527 7.30318 44.9547C6.73144 45.2568 6.05722 45.4078 5.28051 45.4078ZM16.0721 45.4078C15.0257 45.4078 14.071 45.1651 13.208 44.6797C12.345 44.1834 11.66 43.4984 11.1529 42.6246C10.6567 41.7401 10.4086 40.7476 10.4086 39.6473C10.4086 38.5469 10.6567 37.5599 11.1529 36.6861C11.66 35.8015 12.345 35.1165 13.208 34.6311C14.071 34.1348 15.0257 33.8867 16.0721 33.8867C17.1293 33.8867 18.0893 34.1348 18.9524 34.6311C19.8154 35.1165 20.495 35.7961 20.9912 36.6699C21.4874 37.5437 21.7355 38.5362 21.7355 39.6473C21.7355 40.7584 21.4874 41.7508 20.9912 42.6246C20.495 43.4984 19.8154 44.1834 18.9524 44.6797C18.0893 45.1651 17.1293 45.4078 16.0721 45.4078ZM16.0721 44.1295C16.8596 44.1295 17.5662 43.9461 18.1918 43.5793C18.8283 43.2126 19.3245 42.6894 19.6805 42.0097C20.0473 41.3301 20.2307 40.5426 20.2307 39.6473C20.2307 38.7411 20.0473 37.9536 19.6805 37.2848C19.3245 36.6052 18.8337 36.082 18.208 35.7152C17.5823 35.3484 16.8704 35.165 16.0721 35.165C15.2738 35.165 14.5618 35.3484 13.9361 35.7152C13.3105 36.082 12.8142 36.6052 12.4475 37.2848C12.0915 37.9536 11.9135 38.7411 11.9135 39.6473C11.9135 40.5426 12.0915 41.3301 12.4475 42.0097C12.8142 42.6894 13.3105 43.2126 13.9361 43.5793C14.5726 43.9461 15.2846 44.1295 16.0721 44.1295ZM34.8769 34.0971V45.2946H33.4044V36.945L29.6827 45.2946H28.6471L24.9092 36.9288V45.2946H23.4367V34.0971H25.0225L29.1649 43.3528L33.3073 34.0971H34.8769ZM42.2448 45.4078C41.1984 45.4078 40.2437 45.1651 39.3807 44.6797C38.5177 44.1834 37.8326 43.4984 37.3256 42.6246C36.8294 41.7401 36.5813 40.7476 36.5813 39.6473C36.5813 38.5469 36.8294 37.5599 37.3256 36.6861C37.8326 35.8015 38.5177 35.1165 39.3807 34.6311C40.2437 34.1348 41.1984 33.8867 42.2448 33.8867C43.3019 33.8867 44.262 34.1348 45.125 34.6311C45.988 35.1165 46.6677 35.7961 47.1639 36.6699C47.6601 37.5437 47.9082 38.5362 47.9082 39.6473C47.9082 40.7584 47.6601 41.7508 47.1639 42.6246C46.6677 43.4984 45.988 44.1834 45.125 44.6797C44.262 45.1651 43.3019 45.4078 42.2448 45.4078ZM42.2448 44.1295C43.0322 44.1295 43.7388 43.9461 44.3645 43.5793C45.001 43.2126 45.4972 42.6894 45.8532 42.0097C46.22 41.3301 46.4034 40.5426 46.4034 39.6473C46.4034 38.7411 46.22 37.9536 45.8532 37.2848C45.4972 36.6052 45.0064 36.082 44.3807 35.7152C43.755 35.3484 43.043 35.165 42.2448 35.165C41.4465 35.165 40.7345 35.3484 40.1088 35.7152C39.4831 36.082 38.9869 36.6052 38.6201 37.2848C38.2641 37.9536 38.0861 38.7411 38.0861 39.6473C38.0861 40.5426 38.2641 41.3301 38.6201 42.0097C38.9869 42.6894 39.4831 43.2126 40.1088 43.5793C40.7453 43.9461 41.4573 44.1295 42.2448 44.1295ZM53.1855 45.4078C52.4411 45.4078 51.7723 45.2784 51.179 45.0195C50.5965 44.7498 50.138 44.383 49.8036 43.9191C49.4692 43.4445 49.2966 42.8997 49.2858 42.2848H50.8554C50.9093 42.8134 51.1251 43.2611 51.5026 43.6279C51.891 43.9839 52.4519 44.1619 53.1855 44.1619C53.8867 44.1619 54.4368 43.9893 54.836 43.6441C55.2459 43.2881 55.4509 42.835 55.4509 42.2848C55.4509 41.8533 55.3322 41.5027 55.0949 41.233C54.8576 40.9634 54.5609 40.7584 54.2049 40.6181C53.8489 40.4779 53.3689 40.3269 52.7648 40.1651C52.0204 39.9709 51.4217 39.7767 50.9686 39.5825C50.5264 39.3884 50.1434 39.0863 49.8198 38.6764C49.5069 38.2557 49.3505 37.6947 49.3505 36.9935C49.3505 36.3786 49.5069 35.8339 49.8198 35.3592C50.1326 34.8846 50.5695 34.5178 51.1305 34.2589C51.7022 34 52.3548 33.8705 53.0884 33.8705C54.1456 33.8705 55.0086 34.1348 55.6774 34.6634C56.357 35.192 56.74 35.8932 56.8263 36.767H55.2082C55.1542 36.3355 54.9277 35.9579 54.5285 35.6343C54.1294 35.2999 53.6008 35.1327 52.9428 35.1327C52.3279 35.1327 51.8263 35.2945 51.4379 35.6181C51.0496 35.931 50.8554 36.3732 50.8554 36.945C50.8554 37.3549 50.9686 37.6893 51.1952 37.9482C51.4325 38.2071 51.7184 38.4067 52.0528 38.5469C52.398 38.6764 52.878 38.8274 53.4929 39C54.2373 39.205 54.836 39.4099 55.2891 39.6149C55.7421 39.8091 56.1305 40.1165 56.4541 40.5372C56.7777 40.9472 56.9396 41.5081 56.9396 42.2201C56.9396 42.7703 56.7939 43.2881 56.5027 43.7735C56.2114 44.259 55.7799 44.6527 55.2082 44.9547C54.6364 45.2568 53.9622 45.4078 53.1855 45.4078ZM74.3752 34.0971V45.2946H72.9027V36.945L69.181 45.2946H68.1454L64.4075 36.9288V45.2946H62.935V34.0971H64.5208L68.6632 43.3528L72.8056 34.0971H74.3752ZM83.2964 42.7864H78.3773L77.4711 45.2946H75.9177L79.9954 34.0809H81.6945L85.756 45.2946H84.2026L83.2964 42.7864ZM82.8757 41.589L80.8369 35.8932L78.798 41.589H82.8757ZM90.8665 45.4078C90.1222 45.4078 89.4533 45.2784 88.86 45.0195C88.2775 44.7498 87.819 44.383 87.4846 43.9191C87.1502 43.4445 86.9776 42.8997 86.9668 42.2848H88.5364C88.5903 42.8134 88.8061 43.2611 89.1837 43.6279C89.572 43.9839 90.133 44.1619 90.8665 44.1619C91.5677 44.1619 92.1179 43.9893 92.517 43.6441C92.9269 43.2881 93.1319 42.835 93.1319 42.2848C93.1319 41.8533 93.0132 41.5027 92.7759 41.233C92.5386 40.9634 92.2419 40.7584 91.8859 40.6181C91.5299 40.4779 91.0499 40.3269 90.4458 40.1651C89.7015 39.9709 89.1027 39.7767 88.6497 39.5825C88.2074 39.3884 87.8244 39.0863 87.5008 38.6764C87.188 38.2557 87.0315 37.6947 87.0315 36.9935C87.0315 36.3786 87.188 35.8339 87.5008 35.3592C87.8136 34.8846 88.2505 34.5178 88.8115 34.2589C89.3832 34 90.0359 33.8705 90.7694 33.8705C91.8266 33.8705 92.6896 34.1348 93.3584 34.6634C94.0381 35.192 94.421 35.8932 94.5073 36.767H92.8892C92.8352 36.3355 92.6087 35.9579 92.2096 35.6343C91.8104 35.2999 91.2818 35.1327 90.6238 35.1327C90.0089 35.1327 89.5073 35.2945 89.1189 35.6181C88.7306 35.931 88.5364 36.3732 88.5364 36.945C88.5364 37.3549 88.6497 37.6893 88.8762 37.9482C89.1135 38.2071 89.3994 38.4067 89.7338 38.5469C90.079 38.6764 90.5591 38.8274 91.174 39C91.9183 39.205 92.517 39.4099 92.9701 39.6149C93.4232 39.8091 93.8115 40.1165 94.1351 40.5372C94.4588 40.9472 94.6206 41.5081 94.6206 42.2201C94.6206 42.7703 94.4749 43.2881 94.1837 43.7735C93.8924 44.259 93.4609 44.6527 92.8892 44.9547C92.3174 45.2568 91.6432 45.4078 90.8665 45.4078Z" fill="black"/>
<rect x="34.3857" y="3.83203" width="26.6992" height="26.6992" fill="#FAFF00"/>
<path d="M18.8107 3.83215L34.2255 30.5314H3.39591L18.8107 3.83215Z" fill="#FF0000"/>
<circle cx="74.6362" cy="17.1816" r="13.3496" fill="#0038FF"/>
<line x1="83.3906" y1="0.793154" x2="96.538" y2="30.1218" stroke="white" stroke-width="1.01133"/>
</svg>
